<?xml version="1.0" encoding="utf-8"?>
<!-- Generator: Adobe Illustrator 20.1.0, SVG Export Plug-In . SVG Version: 6.00 Build 0)  -->
<svg version="1.1" id="Layer_1" xmlns="http://www.w3.org/2000/svg" xmlns:xlink="http://www.w3.org/1999/xlink" x="0px" y="0px"
	 viewBox="0 0 64.8 65.6" style="enable-background:new 0 0 64.8 65.6;" xml:space="preserve">
<g>
	<path d="M40.8,1.6c-0.4-0.2-0.7-0.3-1-0.3c-1.2-0.3-2.4-0.5-3.6-0.7c-1.1,2.7-2,5.3-2.9,7.9h-1.4h-0.4c-1.2,0.1-2.3,0.2-3.4,0.4
		c-0.9,0.1-1.8,0.4-2.7,0.7c-1.6-2.3-3.3-4.6-4.9-6.8l-0.1-0.1c-0.6,0.2-1.2,0.4-1.7,0.7c-1,0.4-1.9,0.9-2.8,1.5
		c-1.4,0.7-2.7,1.6-3.9,2.7v0.1c1.2,2.5,2.3,5,3.5,7.5c-0.7,0.7-1.3,1.3-1.9,2.1c-0.8,0.8-1.5,1.8-2.1,2.8c-0.3,0.4-0.5,0.8-0.7,1.3
		c-2.8-0.5-5.6-1-8.4-1.4c-0.5,1.2-1,2.4-1.4,3.7c-0.4,2-0.8,3.9-1,5.8l7.8,3v1.4c0,1.1,0.1,2.3,0.4,3.5c0.1,1,0.4,2,0.7,3
		c-2.3,1.6-4.5,3.2-6.8,4.9c1.2,3,2.9,5.8,4.9,8.4h0.1c2.5-1.2,5-2.3,7.6-3.5c0.6,0.6,1.2,1.1,1.8,1.7c0.9,0.8,2,1.5,3.2,2.2
		c0.3,0.2,0.7,0.4,1.1,0.7c-0.5,2.7-0.9,5.5-1.3,8.3c1.1,0.5,2.2,0.9,3.4,1.2c0.3,0.1,0.9,0.3,1.9,0.5c1.4,0.4,2.8,0.6,4.1,0.8
		c1.1-2.7,2.1-5.3,3-8h1.2h0.1c1.2,0,2.3-0.1,3.4-0.3c1-0.2,2-0.5,3-0.8c0,0,0,0.1,0.1,0.1c1.6,2.3,3.3,4.6,4.9,6.9
		c0.5-0.3,1-0.5,1.4-0.7c1-0.4,1.9-0.9,2.8-1.4c1.5-0.9,2.9-1.9,4.2-3c-1.1-2.6-2.3-5.1-3.5-7.7c0.6-0.6,1.1-1.2,1.7-1.8
		c0.7-0.9,1.4-1.9,2-2.8c0-0.1,0.1-0.2,0.1-0.3c0.2-0.3,0.4-0.7,0.6-1c2.8,0.5,5.6,0.9,8.4,1.4c0.5-1.2,0.9-2.4,1.3-3.7
		c0.1-0.3,0.2-0.6,0.3-1c0.1-0.3,0.1-0.6,0.3-1c0.2-1.3,0.5-2.6,0.6-3.8c-2.6-1.1-5.3-2-7.9-3v-1.2c0-1.2-0.1-2.5-0.4-3.7
		c-0.1-0.9-0.4-1.8-0.6-2.7c2.3-1.6,4.6-3.3,6.8-5h0.1c-1.2-3-2.8-5.8-5-8.4c-2.6,1.1-5.1,2.3-7.6,3.5c-0.7-0.7-1.4-1.4-2.1-2
		c-0.9-0.7-1.8-1.4-2.8-1.9c-0.3-0.3-0.7-0.5-1-0.7c0.4-2.8,0.9-5.6,1.3-8.4c-1.2-0.5-2.5-1-3.8-1.4C41.5,1.7,41.1,1.6,40.8,1.6
		L40.8,1.6z M22.2,39c-1.7-2.9-2.1-5.9-1.2-9.1c0.8-3.2,2.7-5.6,5.6-7.3c2.8-1.6,5.9-2,9-1.2c3.2,0.9,5.7,2.7,7.3,5.6
		c1.7,2.9,2.1,5.9,1.2,9.1c-0.8,3.2-2.7,5.6-5.5,7.2c-3,1.7-6,2.1-9.1,1.2C26.3,43.7,23.8,41.8,22.2,39z"/>
	<path d="M22.8,30.4c-0.8,2.7-0.5,5.3,0.9,7.7h0.1c1.4,2.5,3.5,4,6.2,4.8c2.7,0.7,5.3,0.4,7.8-1c2.5-1.5,4-3.5,4.8-6.2v-0.1
		c0.7-2.7,0.3-5.3-1.1-7.7c-1.4-2.5-3.5-4.1-6.2-4.8c-2.7-0.8-5.4-0.4-7.8,1C25,25.5,23.5,27.6,22.8,30.4z M28.8,26.4
		c1.9-1.1,3.8-1.4,5.8-0.8c2,0.5,3.6,1.7,4.7,3.6c1.1,1.8,1.3,3.8,0.8,5.8c-0.6,2-1.8,3.6-3.6,4.6v0.1c-1.9,1-3.8,1.3-5.8,0.7
		c-2.1-0.5-3.6-1.7-4.7-3.6c-1-1.8-1.3-3.7-0.8-5.8C25.8,29,27,27.5,28.8,26.4z"/>
</g>
</svg>
